# xmcd CD database file
#
# Track frame offsets:
#	150
#	8599
#	22345
#	38613
#	51407
#	64558
#	83831
#	99109
#	115310
#	131907
#	145318
#	161166
#	176730
#	194657
#	209812
#	224746
#	259973
#	263522
#	276332
#	291154
#
# Disc length: 4066 seconds
#
# Revision: 2
# Processed by: cddbd v1.5PL3 Copyright (c) Steve Scherf et al.
# Submitted via: CDex 1.50Beta7
#
DISCID=400fe014
DTITLE=Blues Brothers - The Definitive Collection+
DYEAR=1992
DGENRE=Blues
TTITLE0=Opening - I Can't Turn You Loose
TTITLE1=Hey Bartender
TTITLE2=Messin' With The Kid
TTITLE3=(I Got Everything I Need) Almost
TTITLE4=Rubber Biscuit
TTITLE5=I Don't Know
TTITLE6=Soul Man
TTITLE7=Who's Making Love
TTITLE8=Do You Love Me
TTITLE9=Guilty
TTITLE10=Riot In Cell Block Number Nine
TTITLE11=From The Bottom
TTITLE12=Going Back To Miami
TTITLE13=Everybody Needs Somebody To Love
TTITLE14=Expressway To Your Heart
TTITLE15=Sweet Home Chicago
TTITLE16=Closing - I Can't Turn You Loose
TTITLE17=Shake A Tail Feather (ft. Ray Charles)
TTITLE18=Think (ft. Aretha Franklin)
TTITLE19=Gimme Some Lovin'
EXTD=YEAR: 1992
EXTT0=
EXTT1=
EXTT2=
EXTT3=
EXTT4=
EXTT5=
EXTT6=
EXTT7=
EXTT8=
EXTT9=
EXTT10=
EXTT11=
EXTT12=
EXTT13=
EXTT14=
EXTT15=
EXTT16=
EXTT17=
EXTT18=
EXTT19=
PLAYORDER=
